# xmcd
#
# Track frame offsets:
#	150
#	12865
#	24521
#	34480
#	47917
#	59262
#	69728
#	81889
#	95386
#	107148
#	118097
#	130521
#	142509
#	153395
#	166342
#	176400
#	187865
#	202003
#	212141
#	224383
#	237472
#	249619
#	259359
#	273723
#	287104
#
# Disc length: 4023 seconds
#
# Revision: 1
# Processed by: cddbd v1.5.2PL0 Copyright (c) Steve Scherf et al.
# Submitted via: audiograbber 1.83.01
#
DISCID=740fb519
DTITLE=Various Artist - I'm Ready-the Modern Story cd2
DYEAR=2015
DGENRE=blues
TTITLE0=cadets - i want you
TTITLE1=oscar mclollie - eternal love
TTITLE2=jimmy beasley - little coquette
TTITLE3=cliques - the girl in my dreams
TTITLE4=long tall marvin - have mercy miss percy
TTITLE5=poka-dotts - a ting a ling
TTITLE6=etta james - w-o-m-a-n
TTITLE7=arthur lee maye feat. crowns - set my heart free
TTITLE8=jesse belvin - summertime
TTITLE9=dolly cooper - teenage prayer
TTITLE10=cobras - i will return
TTITLE11=jimmy witherspoon - o mother, dear mother
TTITLE12=hawks - it's all over
TTITLE13=marvin and johnny - butter ball
TTITLE14=cadets - don't be angry
TTITLE15=sounds - cold chills
TTITLE16=shirley gunter and the flairs - headin' home
TTITLE17=cliques - i'm in love with a girl
TTITLE18=jimmy beasley - jambalaya
TTITLE19=elmore james - long tall woman
TTITLE20=curley williams - be mine
TTITLE21=etta james - good lockin'
TTITLE22=john lee hooker - lookin' for a woman
TTITLE23=jessie young - mary lou
TTITLE24=jesse belvin - goodnight my love
EXTD=
EXTT0=
EXTT1=
EXTT2=
EXTT3=
EXTT4=
EXTT5=
EXTT6=
EXTT7=
EXTT8=
EXTT9=
EXTT10=
EXTT11=
EXTT12=
EXTT13=
EXTT14=
EXTT15=
EXTT16=
EXTT17=
EXTT18=
EXTT19=
EXTT20=
EXTT21=
EXTT22=
EXTT23=
EXTT24=
PLAYORDER=
